# xmcd
#
# Track frame offsets:
#	150
#	22610
#	41723
#	55118
#	66464
#	81895
#	94309
#	107189
#	117442
#	126744
#	140512
#	154560
#	171699
#	183735
#	195213
#
# Disc length: 2760 seconds
#
# Revision: 1
# Processed by: cddbd v1.5.2PL0 Copyright (c) Steve Scherf et al.
# Submitted via: audiograbber 1.83.01
#
DISCID=da0ac60f
DTITLE=Mahalia Jackson - Silent Night
DYEAR=2003
DGENRE=Blues
TTITLE0=Silent night
TTITLE1=What child is this
TTITLE2=Hark! The Herald Angela sing
TTITLE3=O little town of Betlehem
TTITLE4=Away in a manger
TTITLE5=Go tell it on the  Mountan
TTITLE6=Holy, Holy, Holy !
TTITLE7=Amazing Grace
TTITLE8=Joshua fit the balle of Jericho
TTITLE9=The Lord´s Prayer
TTITLE10=Up in Jerusalem
TTITLE11=How great thou art
TTITLE12=Run all the way
TTITLE13=He´s got the whole Hands in his Hands
TTITLE14=Get away Jordan
EXTD=
EXTT0=
EXTT1=
EXTT2=
EXTT3=
EXTT4=
EXTT5=
EXTT6=
EXTT7=
EXTT8=
EXTT9=
EXTT10=
EXTT11=
EXTT12=
EXTT13=
EXTT14=
PLAYORDER=
